<?xml version="1.0" encoding="utf-8"?>
<!-- Generator: Adobe Illustrator 27.5.0, SVG Export Plug-In . SVG Version: 6.00 Build 0)  -->
<svg version="1.1" id="Layer_1" xmlns="http://www.w3.org/2000/svg" xmlns:xlink="http://www.w3.org/1999/xlink" x="0px" y="0px"
	 viewBox="0 0 17 17" style="enable-background:new 0 0 17 17;" xml:space="preserve">
<g>
	<rect x="10" y="14" width="1" height="1"/>
	<rect x="9" y="14" width="1" height="1"/>
	<rect x="8" y="14" width="1" height="1"/>
	<rect x="7" y="14" width="1" height="1"/>
	<rect x="6" y="14" width="1" height="1"/>
	<rect x="5" y="14" width="1" height="1"/>
	<rect x="4" y="14" width="1" height="1"/>
	<rect x="2" y="14" width="1" height="1"/>
	<rect x="10" y="10" width="1" height="1"/>
	<rect x="9" y="10" width="1" height="1"/>
	<rect x="8" y="10" width="1" height="1"/>
	<rect x="7" y="10" width="1" height="1"/>
	<rect x="6" y="10" width="1" height="1"/>
	<rect x="5" y="10" width="1" height="1"/>
	<rect x="4" y="10" width="1" height="1"/>
	<rect x="2" y="10" width="1" height="1"/>
	<rect x="10" y="6" width="1" height="1"/>
	<rect x="9" y="6" width="1" height="1"/>
	<rect x="8" y="6" width="1" height="1"/>
	<rect x="7" y="6" width="1" height="1"/>
	<rect x="6" y="6" width="1" height="1"/>
	<rect x="5" y="6" width="1" height="1"/>
	<rect x="4" y="6" width="1" height="1"/>
	<rect x="2" y="6" width="1" height="1"/>
	<rect x="14" y="2" width="1" height="1"/>
	<rect x="13" y="2" width="1" height="1"/>
	<rect x="12" y="2" width="1" height="1"/>
	<rect x="11" y="2" width="1" height="1"/>
	<rect x="10" y="2" width="1" height="1"/>
	<rect x="9" y="2" width="1" height="1"/>
	<rect x="8" y="2" width="1" height="1"/>
	<rect x="7" y="2" width="1" height="1"/>
	<rect x="6" y="2" width="1" height="1"/>
	<rect x="5" y="2" width="1" height="1"/>
	<rect x="4" y="2" width="1" height="1"/>
	<rect x="3" y="2" width="1" height="1"/>
	<rect x="2" y="2" width="1" height="1"/>
</g>
</svg>
