<?xml version="1.0" encoding="UTF-8"?>
<svg id="Layer_1" xmlns="http://www.w3.org/2000/svg" version="1.1" viewBox="0 0 117 31">
  <!-- Generator: Adobe Illustrator 29.8.1, SVG Export Plug-In . SVG Version: 2.1.1 Build 2)  -->
  <rect x="98" y="29" width="1" height="1"/>
  <rect x="97" y="29" width="1" height="1"/>
  <rect x="99" y="28" width="1" height="1"/>
  <rect x="97" y="28" width="1" height="1"/>
  <rect x="100" y="27" width="1" height="1"/>
  <rect x="97" y="27" width="1" height="1"/>
  <rect x="100" y="26" width="1" height="1"/>
  <rect x="97" y="26" width="1" height="1"/>
  <rect x="101" y="25" width="1" height="1"/>
  <rect x="102" y="24" width="1" height="1"/>
  <rect x="99" y="24" width="1" height="1"/>
  <rect x="98" y="25" width="1" height="1"/>
  <rect x="103" y="23" width="1" height="1"/>
  <rect x="100" y="23" width="1" height="1"/>
  <rect x="104" y="22" width="1" height="1"/>
  <rect x="101" y="22" width="1" height="1"/>
  <rect x="105" y="21" width="1" height="1"/>
  <rect x="102" y="21" width="1" height="1"/>
  <rect x="103" y="20" width="1" height="1"/>
  <rect x="62" y="21" width="1" height="1"/>
  <rect x="106" y="20" width="1" height="1"/>
  <rect x="104" y="20" width="1" height="1"/>
  <rect x="73" y="20" width="1" height="1"/>
  <rect x="72" y="20" width="1" height="1"/>
  <rect x="71" y="20" width="1" height="1"/>
  <rect x="70" y="20" width="1" height="1"/>
  <rect x="69" y="20" width="1" height="1"/>
  <rect x="68" y="20" width="1" height="1"/>
  <rect x="67" y="20" width="1" height="1"/>
  <rect x="61" y="20" width="1" height="1"/>
  <rect x="60" y="20" width="1" height="1"/>
  <rect x="59" y="21" width="1" height="1"/>
  <rect x="58" y="22" width="1" height="1"/>
  <rect x="45" y="20" width="1" height="1"/>
  <rect x="44" y="20" width="1" height="1"/>
  <rect x="43" y="20" width="1" height="1"/>
  <rect x="42" y="20" width="1" height="1"/>
  <rect x="41" y="20" width="1" height="1"/>
  <rect x="40" y="20" width="1" height="1"/>
  <rect x="36" y="20" width="1" height="1"/>
  <rect x="37" y="19" width="1" height="1"/>
  <rect x="35" y="20" width="1" height="1"/>
  <rect x="27" y="20" width="1" height="1"/>
  <rect x="26" y="20" width="1" height="1"/>
  <rect x="9" y="20" width="1" height="1"/>
  <rect x="8" y="20" width="1" height="1"/>
  <rect x="7" y="20" width="1" height="1"/>
  <rect x="6" y="20" width="1" height="1"/>
  <rect x="5" y="20" width="1" height="1"/>
  <rect x="4" y="20" width="1" height="1"/>
  <rect x="3" y="20" width="1" height="1"/>
  <rect x="107" y="19" width="1" height="1"/>
  <rect x="100" y="19" width="1" height="1"/>
  <rect x="99" y="19" width="1" height="1"/>
  <rect x="98" y="19" width="1" height="1"/>
  <rect x="94" y="19" width="1" height="1"/>
  <rect x="93" y="19" width="1" height="1"/>
  <rect x="92" y="19" width="1" height="1"/>
  <rect x="82" y="19" width="1" height="1"/>
  <rect x="76" y="19" width="1" height="1"/>
  <rect x="75" y="19" width="1" height="1"/>
  <rect x="74" y="19" width="1" height="1"/>
  <rect x="67" y="19" width="1" height="1"/>
  <rect x="66" y="19" width="1" height="1"/>
  <rect x="65" y="19" width="1" height="1"/>
  <rect x="61" y="19" width="1" height="1"/>
  <rect x="59" y="19" width="1" height="1"/>
  <rect x="51" y="19" width="1" height="1"/>
  <rect x="50" y="19" width="1" height="1"/>
  <rect x="49" y="19" width="1" height="1"/>
  <rect x="48" y="19" width="1" height="1"/>
  <rect x="47" y="19" width="1" height="1"/>
  <rect x="46" y="19" width="1" height="1"/>
  <rect x="45" y="19" width="1" height="1"/>
  <rect x="39" y="19" width="1" height="1"/>
  <rect x="35" y="19" width="1" height="1"/>
  <rect x="32" y="19" width="1" height="1"/>
  <rect x="28" y="19" width="1" height="1"/>
  <rect x="26" y="19" width="1" height="1"/>
  <rect x="23" y="19" width="1" height="1"/>
  <rect x="19" y="19" width="1" height="1"/>
  <rect x="12" y="19" width="1" height="1"/>
  <rect x="11" y="19" width="1" height="1"/>
  <rect x="10" y="19" width="1" height="1"/>
  <rect x="3" y="19" width="1" height="1"/>
  <rect x="2" y="19" width="1" height="1"/>
  <rect x="1" y="19" width="1" height="1"/>
  <rect x="112" y="18" width="1" height="1"/>
  <rect x="111" y="18" width="1" height="1"/>
  <rect x="110" y="18" width="1" height="1"/>
  <rect x="109" y="18" width="1" height="1"/>
  <rect x="108" y="18" width="1" height="1"/>
  <rect x="107" y="18" width="1" height="1"/>
  <rect x="100" y="18" width="1" height="1"/>
  <rect x="98" y="18" width="1" height="1"/>
  <rect x="97" y="18" width="1" height="1"/>
  <rect x="96" y="19" width="1" height="1"/>
  <rect x="95" y="19" width="1" height="1"/>
  <rect x="91" y="18" width="1" height="1"/>
  <rect x="83" y="18" width="1" height="1"/>
  <rect x="82" y="18" width="1" height="1"/>
  <rect x="77" y="18" width="1" height="1"/>
  <rect x="65" y="18" width="1" height="1"/>
  <rect x="64" y="18" width="1" height="1"/>
  <rect x="62" y="18" width="1" height="1"/>
  <rect x="58" y="18" width="1" height="1"/>
  <rect x="53" y="18" width="1" height="1"/>
  <rect x="52" y="18" width="1" height="1"/>
  <rect x="51" y="18" width="1" height="1"/>
  <rect x="40" y="18" width="1" height="1"/>
  <rect x="39" y="18" width="1" height="1"/>
  <rect x="36" y="18" width="1" height="1"/>
  <rect x="33" y="18" width="1" height="1"/>
  <rect x="29" y="18" width="1" height="1"/>
  <rect x="26" y="18" width="1" height="1"/>
  <rect x="23" y="18" width="1" height="1"/>
  <rect x="20" y="18" width="1" height="1"/>
  <rect x="14" y="18" width="1" height="1"/>
  <rect x="13" y="18" width="1" height="1"/>
  <rect x="1" y="18" width="1" height="1"/>
  <rect x="114" y="17" width="1" height="1"/>
  <rect x="113" y="17" width="1" height="1"/>
  <rect x="107" y="17" width="1" height="1"/>
  <rect x="101" y="17" width="1" height="1"/>
  <rect x="99" y="17" width="1" height="1"/>
  <rect x="98" y="17" width="1" height="1"/>
  <rect x="91" y="17" width="1" height="1"/>
  <rect x="90" y="19" width="1" height="1"/>
  <rect x="84" y="17" width="1" height="1"/>
  <rect x="82" y="17" width="1" height="1"/>
  <rect x="78" y="17" width="1" height="1"/>
  <rect x="67" y="17" width="1" height="1"/>
  <rect x="66" y="17" width="1" height="1"/>
  <rect x="65" y="17" width="1" height="1"/>
  <rect x="44" y="17" width="1" height="1"/>
  <rect x="43" y="17" width="1" height="1"/>
  <rect x="41" y="17" width="1" height="1"/>
  <rect x="40" y="17" width="1" height="1"/>
  <rect x="39" y="17" width="1" height="1"/>
  <rect x="37" y="17" width="1" height="1"/>
  <rect x="35" y="16" width="1" height="1"/>
  <rect x="34" y="17" width="1" height="1"/>
  <rect x="30" y="17" width="1" height="1"/>
  <rect x="27" y="17" width="1" height="1"/>
  <rect x="24" y="17" width="1" height="1"/>
  <rect x="21" y="17" width="1" height="1"/>
  <rect x="15" y="17" width="1" height="1"/>
  <rect x="4" y="17" width="1" height="1"/>
  <rect x="3" y="17" width="1" height="1"/>
  <rect x="2" y="17" width="1" height="1"/>
  <rect x="115" y="16" width="1" height="1"/>
  <rect x="110" y="15" width="1" height="1"/>
  <rect x="109" y="16" width="1" height="1"/>
  <rect x="108" y="16" width="1" height="1"/>
  <rect x="102" y="16" width="1" height="1"/>
  <rect x="99" y="16" width="1" height="1"/>
  <rect x="91" y="16" width="1" height="1"/>
  <rect x="85" y="16" width="1" height="1"/>
  <rect x="83" y="16" width="1" height="1"/>
  <rect x="79" y="16" width="1" height="1"/>
  <rect x="71" y="16" width="1" height="1"/>
  <rect x="70" y="16" width="1" height="1"/>
  <rect x="69" y="16" width="1" height="1"/>
  <rect x="68" y="16" width="1" height="1"/>
  <rect x="48" y="16" width="1" height="1"/>
  <rect x="47" y="16" width="1" height="1"/>
  <rect x="46" y="17" width="1" height="1"/>
  <rect x="45" y="17" width="1" height="1"/>
  <rect x="42" y="16" width="1" height="1"/>
  <rect x="41" y="16" width="1" height="1"/>
  <rect x="38" y="16" width="1" height="1"/>
  <rect x="31" y="16" width="1" height="1"/>
  <rect x="28" y="16" width="1" height="1"/>
  <rect x="25" y="16" width="1" height="1"/>
  <rect x="22" y="16" width="1" height="1"/>
  <rect x="16" y="16" width="1" height="1"/>
  <rect x="7" y="16" width="1" height="1"/>
  <rect x="6" y="16" width="1" height="1"/>
  <rect x="5" y="16" width="1" height="1"/>
  <rect x="4" y="16" width="1" height="1"/>
  <rect x="115" y="15" width="1" height="1"/>
  <rect x="112" y="14" width="1" height="1"/>
  <rect x="111" y="15" width="1" height="1"/>
  <rect x="109" y="15" width="1" height="1"/>
  <rect x="103" y="15" width="1" height="1"/>
  <rect x="99" y="15" width="1" height="1"/>
  <rect x="91" y="15" width="1" height="1"/>
  <rect x="86" y="15" width="1" height="1"/>
  <rect x="85" y="15" width="1" height="1"/>
  <rect x="84" y="15" width="1" height="1"/>
  <rect x="80" y="15" width="1" height="1"/>
  <rect x="49" y="15" width="1" height="1"/>
  <rect x="45" y="15" width="1" height="1"/>
  <rect x="44" y="15" width="1" height="1"/>
  <rect x="43" y="15" width="1" height="1"/>
  <rect x="38" y="15" width="1" height="1"/>
  <rect x="36" y="15" width="1" height="1"/>
  <rect x="31" y="15" width="1" height="1"/>
  <rect x="30" y="15" width="1" height="1"/>
  <rect x="29" y="15" width="1" height="1"/>
  <rect x="26" y="15" width="1" height="1"/>
  <rect x="23" y="15" width="1" height="1"/>
  <rect x="20" y="15" width="1" height="1"/>
  <rect x="16" y="15" width="1" height="1"/>
  <rect x="115" y="14" width="1" height="1"/>
  <rect x="114" y="14" width="1" height="1"/>
  <rect x="113" y="14" width="1" height="1"/>
  <rect x="110" y="14" width="1" height="1"/>
  <rect x="105" y="14" width="1" height="1"/>
  <rect x="104" y="14" width="1" height="1"/>
  <rect x="99" y="14" width="1" height="1"/>
  <rect x="93" y="18" width="1" height="1"/>
  <rect x="93" y="17" width="1" height="1"/>
  <rect x="93" y="16" width="1" height="1"/>
  <rect x="93" y="15" width="1" height="1"/>
  <rect x="94" y="14" width="1" height="1"/>
  <rect x="91" y="14" width="1" height="1"/>
  <rect x="90" y="14" width="1" height="1"/>
  <rect x="89" y="14" width="1" height="1"/>
  <rect x="88" y="14" width="1" height="1"/>
  <rect x="87" y="14" width="1" height="1"/>
  <rect x="81" y="14" width="1" height="1"/>
  <rect x="48" y="14" width="1" height="1"/>
  <rect x="47" y="14" width="1" height="1"/>
  <rect x="46" y="14" width="1" height="1"/>
  <rect x="39" y="14" width="1" height="1"/>
  <rect x="35" y="14" width="1" height="1"/>
  <rect x="34" y="14" width="1" height="1"/>
  <rect x="32" y="14" width="1" height="1"/>
  <rect x="27" y="14" width="1" height="1"/>
  <rect x="23" y="14" width="1" height="1"/>
  <rect x="21" y="14" width="1" height="1"/>
  <rect x="20" y="14" width="1" height="1"/>
  <rect x="17" y="14" width="1" height="1"/>
  <rect x="110" y="13" width="1" height="1"/>
  <rect x="108" y="13" width="1" height="1"/>
  <rect x="107" y="13" width="1" height="1"/>
  <rect x="106" y="13" width="1" height="1"/>
  <rect x="104" y="13" width="1" height="1"/>
  <rect x="98" y="13" width="1" height="1"/>
  <rect x="97" y="13" width="1" height="1"/>
  <rect x="96" y="13" width="1" height="1"/>
  <rect x="95" y="13" width="1" height="1"/>
  <rect x="87" y="13" width="1" height="1"/>
  <rect x="82" y="13" width="1" height="1"/>
  <rect x="40" y="13" width="1" height="1"/>
  <rect x="34" y="13" width="1" height="1"/>
  <rect x="33" y="13" width="1" height="1"/>
  <rect x="24" y="13" width="1" height="1"/>
  <rect x="21" y="13" width="1" height="1"/>
  <rect x="18" y="13" width="1" height="1"/>
  <rect x="111" y="12" width="1" height="1"/>
  <rect x="88" y="12" width="1" height="1"/>
  <rect x="82" y="12" width="1" height="1"/>
  <rect x="41" y="12" width="1" height="1"/>
  <rect x="36" y="12" width="1" height="1"/>
  <rect x="35" y="12" width="1" height="1"/>
  <rect x="34" y="12" width="1" height="1"/>
  <rect x="29" y="12" width="1" height="1"/>
  <rect x="25" y="12" width="1" height="1"/>
  <rect x="23" y="12" width="1" height="1"/>
  <rect x="22" y="12" width="1" height="1"/>
  <rect x="21" y="12" width="1" height="1"/>
  <rect x="19" y="12" width="1" height="1"/>
  <rect x="112" y="11" width="1" height="1"/>
  <rect x="89" y="11" width="1" height="1"/>
  <rect x="83" y="11" width="1" height="1"/>
  <rect x="41" y="11" width="1" height="1"/>
  <rect x="38" y="11" width="1" height="1"/>
  <rect x="37" y="11" width="1" height="1"/>
  <rect x="35" y="11" width="1" height="1"/>
  <rect x="26" y="11" width="1" height="1"/>
  <rect x="21" y="11" width="1" height="1"/>
  <rect x="19" y="11" width="1" height="1"/>
  <rect x="90" y="10" width="1" height="1"/>
  <rect x="84" y="10" width="1" height="1"/>
  <rect x="45" y="10" width="1" height="1"/>
  <rect x="42" y="10" width="1" height="1"/>
  <rect x="35" y="10" width="1" height="1"/>
  <rect x="21" y="10" width="1" height="1"/>
  <rect x="20" y="10" width="1" height="1"/>
  <rect x="90" y="9" width="1" height="1"/>
  <rect x="87" y="9" width="1" height="1"/>
  <rect x="86" y="9" width="1" height="1"/>
  <rect x="85" y="9" width="1" height="1"/>
  <rect x="84" y="9" width="1" height="1"/>
  <rect x="46" y="9" width="1" height="1"/>
  <rect x="43" y="9" width="1" height="1"/>
  <rect x="36" y="9" width="1" height="1"/>
  <rect x="21" y="9" width="1" height="1"/>
  <rect x="91" y="8" width="1" height="1"/>
  <rect x="89" y="8" width="1" height="1"/>
  <rect x="88" y="8" width="1" height="1"/>
  <rect x="85" y="8" width="1" height="1"/>
  <rect x="47" y="8" width="1" height="1"/>
  <rect x="43" y="8" width="1" height="1"/>
  <rect x="37" y="8" width="1" height="1"/>
  <rect x="22" y="8" width="1" height="1"/>
  <rect x="92" y="7" width="1" height="1"/>
  <rect x="90" y="7" width="1" height="1"/>
  <rect x="85" y="7" width="1" height="1"/>
  <rect x="48" y="7" width="1" height="1"/>
  <rect x="44" y="7" width="1" height="1"/>
  <rect x="38" y="7" width="1" height="1"/>
  <rect x="22" y="7" width="1" height="1"/>
  <rect x="93" y="6" width="1" height="1"/>
  <rect x="90" y="6" width="1" height="1"/>
  <rect x="86" y="6" width="1" height="1"/>
  <rect x="49" y="6" width="1" height="1"/>
  <rect x="45" y="6" width="1" height="1"/>
  <rect x="39" y="6" width="1" height="1"/>
  <rect x="23" y="6" width="1" height="1"/>
  <rect x="93" y="5" width="1" height="1"/>
  <rect x="91" y="5" width="1" height="1"/>
  <rect x="87" y="5" width="1" height="1"/>
  <rect x="50" y="5" width="1" height="1"/>
  <rect x="46" y="5" width="1" height="1"/>
  <rect x="40" y="5" width="1" height="1"/>
  <rect x="23" y="5" width="1" height="1"/>
  <rect x="94" y="4" width="1" height="1"/>
  <rect x="91" y="4" width="1" height="1"/>
  <rect x="88" y="4" width="1" height="1"/>
  <rect x="51" y="4" width="1" height="1"/>
  <rect x="50" y="4" width="1" height="1"/>
  <rect x="46" y="4" width="1" height="1"/>
  <rect x="41" y="4" width="1" height="1"/>
  <rect x="24" y="4" width="1" height="1"/>
  <rect x="95" y="3" width="1" height="1"/>
  <rect x="91" y="3" width="1" height="1"/>
  <rect x="90" y="3" width="1" height="1"/>
  <rect x="89" y="3" width="1" height="1"/>
  <rect x="51" y="3" width="1" height="1"/>
  <rect x="47" y="3" width="1" height="1"/>
  <rect x="43" y="3" width="1" height="1"/>
  <rect x="42" y="3" width="1" height="1"/>
  <rect x="24" y="3" width="1" height="1"/>
  <rect x="51" y="2" width="1" height="1"/>
  <rect x="48" y="2" width="1" height="1"/>
  <rect x="24" y="2" width="1" height="1"/>
  <rect x="23" y="2" width="1" height="1"/>
  <rect x="22" y="2" width="1" height="1"/>
  <rect x="51" y="1" width="1" height="1"/>
  <rect x="50" y="1" width="1" height="1"/>
  <rect x="49" y="1" width="1" height="1"/>
</svg>