<?xml version="1.0" encoding="UTF-8"?>
<svg id="Layer_1" xmlns="http://www.w3.org/2000/svg" version="1.1" viewBox="0 0 17 17">
  <!-- Generator: Adobe Illustrator 29.8.1, SVG Export Plug-In . SVG Version: 2.1.1 Build 2)  -->
  <rect x="4.5" y="15.5" width="1" height="1"/>
  <rect x="3.5" y="15.5" width="1" height="1"/>
  <rect x="2.5" y="15.5" width="1" height="1"/>
  <rect x="1.5" y="15.5" width="1" height="1"/>
  <rect x=".5" y="15.5" width="1" height="1"/>
  <rect x="5.5" y="14.5" width="1" height="1"/>
  <rect x=".5" y="14.5" width="1" height="1"/>
  <rect x="6.5" y="13.5" width="1" height="1"/>
  <rect x="1.5" y="13.5" width="1" height="1"/>
  <rect x="6.5" y="12.5" width="1" height="1"/>
  <rect x="1.5" y="12.5" width="1" height="1"/>
  <rect x="6.5" y="11.5" width="1" height="1"/>
  <rect x="1.5" y="11.5" width="1" height="1"/>
  <rect x="7.5" y="10.5" width="1" height="1"/>
  <rect x="5.5" y="10.5" width="1" height="1"/>
  <rect x="3.5" y="10.5" width="1" height="1"/>
  <rect x="2.5" y="10.5" width="1" height="1"/>
  <rect x="8.5" y="9.5" width="1" height="1"/>
  <rect x="9.5" y="8.5" width="1" height="1"/>
  <rect x="4.5" y="9.5" width="1" height="1"/>
  <rect x="10.5" y="7.5" width="1" height="1"/>
  <rect x="7.5" y="8.5" width="1" height="1"/>
  <rect x="5.5" y="8.5" width="1" height="1"/>
  <rect x="11.5" y="6.5" width="1" height="1"/>
  <rect x="6.5" y="7.5" width="1" height="1"/>
  <rect x="12.5" y="5.5" width="1" height="1"/>
  <rect x="7.5" y="6.5" width="1" height="1"/>
  <rect x="13.5" y="4.5" width="1" height="1"/>
  <rect x="9.5" y="4.5" width="1" height="1"/>
  <rect x="8.5" y="5.5" width="1" height="1"/>
  <rect x="14.5" y="3.5" width="1" height="1"/>
  <rect x="10.5" y="3.5" width="1" height="1"/>
  <rect x="15.5" y="2.5" width="1" height="1"/>
  <rect x="11.5" y="2.5" width="1" height="1"/>
  <rect x="14.5" y="1.5" width="1" height="1"/>
  <rect x="12.5" y="1.5" width="1" height="1"/>
  <rect x="13.5" y=".5" width="1" height="1"/>
</svg>