<?xml version="1.0" encoding="UTF-8"?>
<svg id="Layer_1" xmlns="http://www.w3.org/2000/svg" version="1.1" viewBox="0 0 17 17">
  <!-- Generator: Adobe Illustrator 29.8.1, SVG Export Plug-In . SVG Version: 2.1.1 Build 2)  -->
  <rect x="10" y="13" width="1" height="1"/>
  <rect x="9" y="13" width="1" height="1"/>
  <rect x="8" y="13" width="1" height="1"/>
  <rect x="7" y="13" width="1" height="1"/>
  <rect x="6" y="13" width="1" height="1"/>
  <rect x="13" y="8" width="1" height="1"/>
  <rect x="12" y="8" width="1" height="1"/>
  <rect x="11" y="8" width="1" height="1"/>
  <rect x="10" y="8" width="1" height="1"/>
  <rect x="9" y="8" width="1" height="1"/>
  <rect x="8" y="8" width="1" height="1"/>
  <rect x="7" y="8" width="1" height="1"/>
  <rect x="6" y="8" width="1" height="1"/>
  <rect x="5" y="8" width="1" height="1"/>
  <rect x="4" y="8" width="1" height="1"/>
  <rect x="3" y="8" width="1" height="1"/>
  <rect x="15" y="3" width="1" height="1"/>
  <rect x="14" y="3" width="1" height="1"/>
  <rect x="13" y="3" width="1" height="1"/>
  <rect x="12" y="3" width="1" height="1"/>
  <rect x="11" y="3" width="1" height="1"/>
  <rect x="10" y="3" width="1" height="1"/>
  <rect x="9" y="3" width="1" height="1"/>
  <rect x="8" y="3" width="1" height="1"/>
  <rect x="7" y="3" width="1" height="1"/>
  <rect x="6" y="3" width="1" height="1"/>
  <rect x="5" y="3" width="1" height="1"/>
  <rect x="4" y="3" width="1" height="1"/>
  <rect x="3" y="3" width="1" height="1"/>
  <rect x="2" y="3" width="1" height="1"/>
  <rect x="1" y="3" width="1" height="1"/>
</svg>