<?xml version="1.0" encoding="UTF-8"?>
<svg id="Layer_1" xmlns="http://www.w3.org/2000/svg" version="1.1" viewBox="0 0 192 192">
  <!-- Generator: Adobe Illustrator 29.8.1, SVG Export Plug-In . SVG Version: 2.1.1 Build 2)  -->
  <defs>
    <style>
      .st0 {
        fill: #18181b;
      }

      .st1 {
        fill: #19a655;
      }
    </style>
  </defs>
  <path class="st0" d="M159.06,185.6H32.87c-14.66,0-26.51-11.84-26.51-26.56V32.96c0-14.72,11.84-26.56,26.51-26.56h126.19c14.66,0,26.51,11.84,26.51,26.56v126.21c-.06,14.59-11.91,26.43-26.57,26.43h.06Z"/>
  <path class="st1" d="M152.37,55.62l-.95-.95,1.05-1.06c3.88-3.88,3.88-10.19,0-14.06-3.75-3.75-10.32-3.75-14.07,0l-1.06,1.06-1-1c-5.86-5.86-15.45-5.86-21.39,0-1.93,1.94-3.23,4.27-3.88,6.76l-.73-.73c-5.68-5.69-15.7-5.7-21.39,0-5.9,5.9-5.9,15.5,0,21.4l10.98,10.98-21.93,21.95-11.04-11.04c-5.68-5.69-15.7-5.69-21.39,0-5.9,5.9-5.9,15.5,0,21.4l.74.74c-2.47.66-4.81,1.95-6.76,3.88-5.86,5.86-5.87,15.45,0,21.39l1.06,1.06-1.01,1.01c-1.87,1.87-2.9,4.37-2.9,7.03s1.03,5.15,2.9,7.03c1.87,1.88,4.37,2.91,7.03,2.91h0c2.66,0,5.16-1.04,7.03-2.91l1.01-1.01.95.95h0c2.93,2.94,6.8,4.41,10.67,4.41s7.75-1.47,10.72-4.41c1.93-1.93,3.23-4.27,3.89-6.74l.72.72c5.9,5.9,15.5,5.9,21.39,0,5.9-5.9,5.9-15.5,0-21.39l-10.93-10.93,21.93-21.94,10.66,10.66c.18.22.38.42.61.6,2.8,2.63,6.46,4.08,10.35,4.08s7.85-1.57,10.69-4.42c5.9-5.9,5.9-15.49,0-21.39l-.74-.74c2.47-.66,4.81-1.95,6.76-3.88,5.86-5.86,5.87-15.45,0-21.4l.03-.02ZM143.79,44.92c.87-.87,2.43-.88,3.31,0,.9.9.9,2.42,0,3.31l-.89.9-3.31-3.31.9-.9h0ZM48.3,147.08c-.87.88-2.43.87-3.31,0-.44-.44-.68-1.03-.68-1.66s.24-1.22.68-1.66l.9-.9,3.31,3.32-.9.9ZM71.66,147c-2.97,2.93-7.74,2.93-10.65.02l-.06-.05-16-16.01c-2.93-2.96-2.93-7.74-.03-10.65,1.48-1.47,3.42-2.2,5.35-2.2s3.84.72,5.3,2.18l16.05,16.06h0c2.93,2.96,2.93,7.74.03,10.64h.01ZM97.65,141c-2.93,2.93-7.71,2.93-10.64,0l-9.99-9.99-16.07-16.08-9.98-9.99c-2.94-2.94-2.94-7.72,0-10.65,2.82-2.82,7.82-2.82,10.64,0l36.05,36.06c2.93,2.94,2.93,7.71,0,10.65h-.01ZM86.84,108.56l-3.34-3.34,21.76-21.78,3.34,3.34-21.76,21.77h0ZM140.97,97.66c-2.94,2.93-7.7,2.94-10.62.02l-36.01-36.03c-2.94-2.94-2.94-7.71,0-10.65s7.83-2.82,10.63,0l9.99,9.99s.11.06.16.11l15.83,15.89s0,.01,0,.02h0s0,.02.02.02l9.97,9.97c2.93,2.94,2.93,7.71,0,10.64l.02.02ZM147.01,71.63c-2.96,2.91-7.73,2.93-10.66.02l-15.95-16.02s-.06-.03-.08-.05c-2.87-2.97-2.87-7.7.01-10.58,2.95-2.92,7.74-2.94,10.65-.02l16,16c2.93,2.96,2.93,7.75.03,10.65Z"/>
</svg>