<?xml version="1.0" encoding="UTF-8"?>
<svg id="Layer_1" xmlns="http://www.w3.org/2000/svg" version="1.1" viewBox="0 0 30 30">
  <!-- Generator: Adobe Illustrator 29.8.1, SVG Export Plug-In . SVG Version: 2.1.1 Build 2)  -->
  <defs>
    <style>
      .st0 {
        fill: #18181b;
      }

      .st1 {
        fill: none;
        stroke: #19a655;
        stroke-linecap: round;
        stroke-linejoin: round;
        stroke-width: 1.5px;
      }
    </style>
  </defs>
  <path class="st0" d="M24.85,29H5.14c-2.29,0-4.14-1.85-4.14-4.15V5.15C1,2.85,2.85,1,5.14,1h19.71c2.29,0,4.14,1.85,4.14,4.15v19.72c-.01,2.28-1.86,4.13-4.15,4.13Z"/>
  <path class="st1" d="M20.83,15.8c.81.81,2.14.81,2.95,0s.81-2.14,0-2.95h0l-1.84-1.84c.81.81,2.13.81,2.95,0,.81-.81.81-2.13,0-2.95h0l-2.95-2.95c-.81-.81-2.13-.81-2.95,0-.81.81-.81,2.13,0,2.95l-1.84-1.84c-.81-.81-2.14-.81-2.95,0s-.81,2.14,0,2.95l6.64,6.64h-.01Z"/>
  <path class="st1" d="M5.1,24.9l1.46-1.46"/>
  <path class="st1" d="M23.44,6.56l1.46-1.46"/>
  <path class="st1" d="M8.06,24.89c.81.81,2.13.81,2.95,0,.81-.81.81-2.13,0-2.95h0l1.84,1.84c.81.81,2.14.81,2.95,0,.81-.81.81-2.14,0-2.95l-6.64-6.64c-.81-.81-2.14-.81-2.95,0s-.81,2.14,0,2.95l1.84,1.84c-.81-.81-2.13-.81-2.95,0-.81.81-.81,2.13,0,2.95l2.95,2.95h0Z"/>
  <path class="st1" d="M12.5,17.5l5-5"/>
</svg>