<?xml version="1.0" encoding="UTF-8"?>
<svg id="Layer_1" xmlns="http://www.w3.org/2000/svg" version="1.1" viewBox="0 0 24 24">
  <!-- Generator: Adobe Illustrator 29.8.1, SVG Export Plug-In . SVG Version: 2.1.1 Build 2)  -->
  <defs>
    <style>
      .st0 {
        fill: none;
        stroke: #000;
        stroke-linecap: round;
        stroke-linejoin: round;
        stroke-width: 1.5px;
      }
    </style>
  </defs>
  <g id="Layer_x5F_1">
    <path class="st0" d="M17,18s1-1,1-2c0,0,1-1,2-1,0,0,0,2-2,5v2"/>
    <path class="st0" d="M7,18s-1-1-1-2c0,0-1-1-2-1,0,0,0,2,2,5v2"/>
    <line class="st0" x1="12" y1="18" x2="12" y2="22"/>
    <path class="st0" d="M20,12v1c-1,0-2,1-3,1h-3c-1,0-2-2-2-4,0,2-1,4-2,4h-3c-1,0-2-1-3-1v-1"/>
    <polyline class="st0" points="16 6 13 6 12 7 11 6 8 6"/>
    <path class="st0" d="M23,7s-1-2-5-2c0,0-1-1-3-2v-1"/>
    <path class="st0" d="M1,7s1-2,5-2c0,0,1-1,3-2v-1"/>
  </g>
</svg>