<?xml version="1.0" encoding="UTF-8"?>
<svg id="Layer_1" xmlns="http://www.w3.org/2000/svg" version="1.1" viewBox="0 0 24 24">
  <!-- Generator: Adobe Illustrator 29.8.1, SVG Export Plug-In . SVG Version: 2.1.1 Build 2)  -->
  <defs>
    <style>
      .st0 {
        fill: none;
        stroke: #000;
        stroke-linecap: round;
        stroke-linejoin: round;
        stroke-width: 1.5px;
      }
    </style>
  </defs>
  <ellipse class="st0" cx="11.99" cy="3.02" rx="2.07" ry="2.02"/>
  <path class="st0" d="M16.68,14l1.58-1.65c.84-.87.99-2.23.34-3l-1.12-1.32c-.71-.84-1.71-1.29-2.82-1.29h-5.31c-1.11,0-2.11.46-2.82,1.29l-1.12,1.32c-.65.77-.5,2.13.34,3l1.58,1.65"/>
  <path class="st0" d="M14.35,10.57l.51,4.04c.14,1.07.32,2.13.57,3.18l.92,4c.14.62-.34,1.21-.99,1.21h-.7c-.49,0-.91-.34-1-.81l-1.14-6.08c-.1-.56-.92-.56-1.03,0l-1.14,6.08c-.09.47-.51.81-1,.81h-.7c-.65,0-1.14-.59-.99-1.21l.92-4c.24-1.05.43-2.11.57-3.18l.51-4.04"/>
</svg>