<svg id="Layer_1" xmlns="http://www.w3.org/2000/svg" version="1.1" viewBox="0 0 24 24">
  <!-- Generator: Adobe Illustrator 29.8.1, SVG Export Plug-In . SVG Version: 2.1.1 Build 2)  -->
  <defs>
    <style>
      .st0 {
        fill: none;
        stroke: #000;
        stroke-linecap: round;
        stroke-linejoin: round;
        stroke-width: 1.5px;
      }
    </style>
  </defs>
  <path class="st0" d="M10.45,1.21c-.26,2.05,1.57,3.73,1.26,6.08-.09.71-.09,1.05,0,1.26"/>
  <path class="st0" d="M13.64,1.75s-.74,3.6,1.05,6.45"/>
  <path class="st0" d="M18.76,1c.09,1.22.35,2.18-.39,3.48-.65,1.17-.83,2.35-.87,3.52"/>
  <path class="st0" d="M16.12,9c.7.8.87,2.26.44,3.73s-1.48,4.65-1.39,7.58"/>
  <path class="st0" d="M16.82,21.41c.44.21.78.5,1.26.46.48,0,.91-.08.91.29,0,.42-.57.71-1.7.54-1.13-.21-1.13.29-1.96.29-.78-.04-1.09-.38-1.7-.29-.61.04-1.31.25-1.52-.5-.22-.71.52-1.34.78-1.76.21-.33.2-2.54,0-3.97"/>
  <path class="st0" d="M12.74,9.95c-.93.58-1.07,2.24-.66,3.22.35.96.83,1.41,1.26,1.44"/>
  <path class="st0" d="M5.03,1.21c-.26,2.05,1.57,3.73,1.26,6.08-.09.71-.09,1.05,0,1.26"/>
  <path class="st0" d="M8.29,2.89c-.09,1.3,0,3.48,1.18,5.32"/>
  <path class="st0" d="M10.6,15.33c-.35,1.47-.7,3.27-.65,4.99,0,0,.26.21.57.42"/>
  <path class="st0" d="M10.42,22.75c-1.05.25-1.39-.13-2-.04-.61.04-1.31.13-1.52-.5s.52-1.34.78-1.76c.17-.27.19-1.74.1-3.05"/>
  <path class="st0" d="M7.49,10.02c-.89.72-1.02,2.67-.64,3.84.22.67.46,1.14.71,1.42"/>
</svg>
