<?xml version="1.0" encoding="UTF-8"?>
<svg id="Layer_1" xmlns="http://www.w3.org/2000/svg" version="1.1" viewBox="0 0 24 24">
  <!-- Generator: Adobe Illustrator 29.8.1, SVG Export Plug-In . SVG Version: 2.1.1 Build 2)  -->
  <defs>
    <style>
      .st0 {
        fill: none;
        stroke: #000;
        stroke-linecap: round;
        stroke-linejoin: round;
        stroke-width: 1.5px;
      }
    </style>
  </defs>
  <path class="st0" d="M17.83,12.8c.81.81,2.14.81,2.95,0s.81-2.14,0-2.95h0l-1.84-1.84c.81.81,2.13.81,2.95,0,.81-.81.81-2.13,0-2.95h0l-2.95-2.95c-.81-.81-2.13-.81-2.95,0-.81.81-.81,2.13,0,2.95l-1.84-1.84c-.81-.81-2.14-.81-2.95,0s-.81,2.14,0,2.95l6.64,6.64h-.01Z"/>
  <path class="st0" d="M2.1,21.9h0c-.44-.44-.44-1.16,0-1.6l.66-.66,1.6,1.6-.66.66c-.44.44-1.16.44-1.6,0Z"/>
  <path class="st0" d="M21.24,4.36l-1.6-1.6.66-.66c.44-.44,1.16-.44,1.6,0h0c.44.44.44,1.16,0,1.6l-.66.66Z"/>
  <path class="st0" d="M5.06,21.89c.81.81,2.13.81,2.95,0,.81-.81.81-2.13,0-2.95h0l1.84,1.84c.81.81,2.14.81,2.95,0,.81-.81.81-2.14,0-2.95l-6.64-6.64c-.81-.81-2.14-.81-2.95,0s-.81,2.14,0,2.95l1.84,1.84c-.81-.81-2.13-.81-2.95,0-.81.81-.81,2.13,0,2.95l2.95,2.95h0Z"/>
  <rect class="st0" x="8.46" y="10.87" width="7.07" height="2.27" transform="translate(-4.97 12) rotate(-45)"/>
  <line class="st0" x1="5.05" y1="15.98" x2="8.01" y2="18.94"/>
  <line class="st0" x1="15.99" y1="5.06" x2="18.94" y2="8.01"/>
</svg>