<?xml version="1.0" encoding="UTF-8"?>
<svg id="Layer_1" xmlns="http://www.w3.org/2000/svg" version="1.1" viewBox="0 0 16 16">
  <!-- Generator: Adobe Illustrator 29.8.1, SVG Export Plug-In . SVG Version: 2.1.1 Build 2)  -->
  <defs>
    <style>
      .st0 {
        fill: none;
        stroke: #000;
        stroke-linecap: round;
        stroke-linejoin: round;
        stroke-width: 1.5px;
      }
    </style>
  </defs>
  <path class="st0" d="M8.16,1h-.32c-.8,0-1.44.63-1.44,1.4v.13c0,.5-.28.96-.72,1.21l-.31.18c-.45.25-1,.25-1.44,0l-.11-.06c-.69-.39-1.57-.16-1.97.51l-.16.27c-.4.67-.16,1.52.53,1.91l.11.07c.44.25.72.71.72,1.2v.36c0,.5-.27.97-.72,1.22l-.11.06c-.69.39-.92,1.24-.53,1.91l.16.27c.4.67,1.28.9,1.97.51l.11-.06c.45-.25,1-.25,1.44,0l.31.18c.45.25.72.71.72,1.21v.13c0,.77.65,1.4,1.44,1.4h.32c.8,0,1.44-.63,1.44-1.4v-.13c0-.5.28-.96.72-1.21l.31-.18c.45-.25,1-.25,1.44,0l.11.06c.69.39,1.57.16,1.97-.51l.16-.27c.4-.67.16-1.52-.53-1.91l-.11-.06c-.45-.25-.72-.72-.72-1.22v-.35c0-.5.27-.97.72-1.22l.11-.06c.69-.39.92-1.24.53-1.91l-.16-.27c-.4-.67-1.28-.9-1.97-.51l-.11.06c-.45.25-1,.25-1.44,0l-.31-.17c-.45-.25-.72-.71-.72-1.21v-.13c0-.77-.65-1.4-1.44-1.4Z"/>
  <circle class="st0" cx="8" cy="8" r="2.15"/>
</svg>