<?xml version="1.0" encoding="UTF-8"?>
<svg id="Layer_1" xmlns="http://www.w3.org/2000/svg" version="1.1" viewBox="0 0 24 24">
  <!-- Generator: Adobe Illustrator 29.8.1, SVG Export Plug-In . SVG Version: 2.1.1 Build 2)  -->
  <defs>
    <style>
      .st0 {
        fill: none;
        stroke: #000;
        stroke-linecap: round;
        stroke-linejoin: round;
        stroke-width: 1.5px;
      }
    </style>
  </defs>
  <line class="st0" x1="12" y1="16.5" x2="12" y2="22.5"/>
  <path class="st0" d="M2,16.5s1,0,2-1"/>
  <path class="st0" d="M6,22.5s-1.13-1.32-1.13-4.18"/>
  <path class="st0" d="M3,12.5s-1,1,0,2,4,3,4,4"/>
  <path class="st0" d="M8,13.5c1-1,2-2,3-5"/>
  <path class="st0" d="M9,1.5s0,1.26-.5,2.28"/>
  <path class="st0" d="M1,7.5c.56-1.37,2-2,3-2"/>
  <path class="st0" d="M4,7.28s.99-.31,1.7-1.02,1.3-2.76,4.3-1.76"/>
  <path class="st0" d="M20,15.5c1,1,2,1,2,1"/>
  <path class="st0" d="M19.13,18.32c0,2.86-1.13,4.18-1.13,4.18"/>
  <path class="st0" d="M17,18.5c0-1,3-3,4-4s0-2,0-2"/>
  <path class="st0" d="M13,8.5c1,3,2,4,3,5"/>
  <path class="st0" d="M15.5,3.78c-.5-1.02-.5-2.28-.5-2.28"/>
  <path class="st0" d="M20,5.5c1,0,2.44.63,3,2"/>
  <path class="st0" d="M14,4.5c3-1,3.59,1.05,4.3,1.76s1.7,1.02,1.7,1.02"/>
</svg>